<svg xmlns="http://www.w3.org/2000/svg" width="223" height="40" viewBox="0 0 223 40" fill="none"><path fill-rule="evenodd" clip-rule="evenodd" d="M57.5765 7.30518H61.6469V12.4942H65.0027V15.6014H61.678V21.8158V23.4005V28.7138C61.1187 28.7138 60.5905 28.6206 60.1244 28.4963C59.6273 28.3721 59.1923 28.1235 58.8194 27.8128C58.4465 27.502 58.1358 27.0981 57.9183 26.6009C57.7008 26.1038 57.5765 25.5134 57.5765 24.7988V15.6325H55.4636V12.4942H57.5765V7.30518ZM14.8214 18.3061C14.231 17.84 13.5164 17.4361 12.6774 17.1254C11.8385 16.8146 10.9063 16.5039 9.88093 16.2243C9.10413 16.0378 8.38947 15.8514 7.7991 15.665C7.20873 15.4785 6.71157 15.2921 6.30764 15.0746C5.9037 14.8571 5.62405 14.6085 5.40655 14.3289C5.18904 14.0492 5.09583 13.6764 5.09583 13.2413C5.09583 12.4956 5.37547 11.9052 5.93477 11.5013C6.49407 11.0974 7.33302 10.8799 8.45161 10.8799C9.07305 10.8799 9.6945 10.9731 10.3159 11.1284C10.9374 11.2838 11.4967 11.4702 12.0249 11.7188C12.5531 11.9363 12.9881 12.1849 13.361 12.4024C13.7339 12.651 13.9824 12.8374 14.1067 12.9617L15.9089 9.63698C14.9768 9.01554 13.8892 8.45624 12.6463 7.99016C11.4035 7.52408 10.0363 7.30658 8.5759 7.30658C7.51945 7.30658 6.52514 7.46193 5.59298 7.74158C4.66082 8.02123 3.85294 8.45624 3.13828 8.98447C2.42362 9.54376 1.8954 10.2274 1.49146 11.0663C1.08752 11.9052 0.901091 12.8374 0.901091 13.8939C0.901091 14.7017 1.02538 15.3853 1.27396 15.9757C1.52253 16.5661 1.8954 17.0632 2.39255 17.5293C2.88971 17.9643 3.51115 18.3682 4.25688 18.679C5.00261 18.9897 5.87263 19.3004 6.86693 19.5801C7.70588 19.8286 8.45161 20.0461 9.10413 20.2326C9.78771 20.419 10.347 20.6365 10.8131 20.8851C11.2792 21.1337 11.652 21.4133 11.9006 21.724C12.1492 22.0347 12.2735 22.4387 12.2735 22.8737C12.2735 24.303 11.1549 25.0487 8.88662 25.0487C8.07875 25.0487 7.30194 24.9555 6.52514 24.738C5.74834 24.5516 5.06475 24.303 4.41224 24.0234C3.7908 23.7437 3.2315 23.4641 2.76542 23.1533C2.29934 22.8737 1.98861 22.6251 1.80218 22.4698L0 25.9809C1.21181 26.8509 2.61006 27.5345 4.13259 28.0006C5.68619 28.4667 7.2398 28.7152 8.82448 28.7152C9.84986 28.7152 10.8442 28.591 11.7763 28.3735C12.7085 28.156 13.5474 27.7831 14.2621 27.2859C14.9768 26.7888 15.5671 26.1363 15.9711 25.3595C16.4061 24.5516 16.5925 23.5884 16.5925 22.4698C16.5925 21.5065 16.4371 20.6986 16.1264 20.0151C15.8468 19.3625 15.3807 18.8032 14.8214 18.3061ZM33.496 14.6381C32.8435 13.8924 32.0356 13.302 31.1346 12.867C30.2335 12.432 29.2081 12.2145 28.1516 12.2145C26.9398 12.2145 25.8523 12.4941 24.9201 13.0224C23.988 13.5506 23.2112 14.2963 22.6208 15.2285V12.4941H19.0475V30.8888C19.0475 33.1571 20.8808 34.9593 23.1179 34.9593V25.6687C23.6462 26.6319 24.3919 27.3777 25.3241 27.937C26.2562 28.4963 27.3438 28.7759 28.6177 28.7759C29.6431 28.7759 30.5753 28.5584 31.4142 28.1234C32.2531 27.6884 32.9989 27.098 33.6203 26.3523C34.2418 25.6066 34.7078 24.7055 35.0807 23.7112C35.4225 22.6858 35.6089 21.5983 35.6089 20.4486C35.6089 19.33 35.4225 18.2735 35.0496 17.2482C34.6768 16.2539 34.1485 15.3838 33.496 14.6381ZM31.1346 22.2818C30.917 22.8722 30.6374 23.4004 30.2956 23.8354C29.9227 24.2705 29.4877 24.6433 28.9595 24.8919C28.4313 25.1715 27.872 25.2958 27.2816 25.2958C26.4116 25.2958 25.6037 24.9851 24.8269 24.3947C24.0812 23.8044 23.5219 23.0276 23.149 22.1265V18.3668C23.3044 17.9939 23.4908 17.621 23.7705 17.3103C24.0501 16.9996 24.3608 16.6889 24.7026 16.4714C25.0444 16.2228 25.4173 16.0364 25.8212 15.9121C26.2252 15.7878 26.6291 15.7256 27.002 15.7256C27.6234 15.7256 28.2138 15.8499 28.742 16.0985C29.2702 16.3471 29.7363 16.6889 30.1402 17.0928C30.5442 17.5278 30.8549 18.025 31.0724 18.6153C31.2899 19.2057 31.4142 19.8271 31.4142 20.4797C31.4453 21.07 31.321 21.6915 31.1346 22.2818ZM49.2807 12.8981C50.3061 13.3331 51.1761 13.9234 51.8908 14.7003C52.6054 15.446 53.1647 16.3471 53.5687 17.3414C53.9726 18.3357 54.159 19.3921 54.159 20.5107C54.159 21.5983 53.9415 22.6547 53.5687 23.649C53.1958 24.6433 52.6365 25.5133 51.9218 26.2901C51.2072 27.0359 50.3372 27.6573 49.3118 28.0923C48.2553 28.5584 47.1057 28.7759 45.8006 28.7759C44.4956 28.7759 43.3149 28.5273 42.2895 28.0923C41.2641 27.6573 40.363 27.0669 39.6484 26.2901C38.9337 25.5133 38.3744 24.6433 38.0015 23.649C37.5976 22.6547 37.4112 21.5983 37.4112 20.5107C37.4112 19.3921 37.6287 18.3357 38.0015 17.3414C38.3744 16.3471 38.9337 15.4771 39.6484 14.7003C40.363 13.9545 41.2641 13.3331 42.2895 12.8981C43.3459 12.432 44.4956 12.2145 45.8006 12.2145C47.0746 12.2145 48.2553 12.4631 49.2807 12.8981ZM48.7525 23.9597C49.1254 23.5247 49.405 23.0276 49.6225 22.4372C49.84 21.8468 49.9332 21.1943 49.9332 20.4797C49.9332 19.7961 49.84 19.1436 49.6225 18.5532C49.4361 17.9628 49.1254 17.4657 48.7525 17.0307C48.3796 16.5957 47.9135 16.2849 47.4164 16.0364C46.9192 15.8188 46.3599 15.6946 45.7696 15.6946C45.1792 15.6946 44.6199 15.8188 44.1227 16.0674C43.5945 16.2849 43.1595 16.6267 42.7866 17.0617C42.4138 17.4967 42.1341 17.9939 41.9166 18.5843C41.6991 19.1746 41.6059 19.8271 41.6059 20.5107C41.6059 21.2254 41.6991 21.8468 41.9166 22.4372C42.1031 23.0276 42.4138 23.5247 42.7866 23.9597C43.1595 24.3947 43.6256 24.7055 44.1227 24.954C44.6199 25.1716 45.1792 25.2958 45.7696 25.2958C46.3599 25.2958 46.9192 25.2026 47.4164 24.954C47.9446 24.7055 48.3796 24.3947 48.7525 23.9597ZM79.0475 17.3102C80.1039 16.0362 80.6943 14.4205 80.6943 12.7736V12.4629H67.4886V15.8808H75.5363L68.7937 23.9285C67.7372 25.2025 67.1468 26.8182 67.1468 28.465V28.7758H80.8496V25.3578H72.367L79.0475 17.3102ZM94.1489 12.8056C95.1743 13.2406 96.0754 13.862 96.7901 14.6078C97.5047 15.3535 98.064 16.2546 98.5301 17.2489C98.903 18.2432 99.0894 19.2997 99.0894 20.3872V21.164C99.0583 21.4126 99.0273 21.6301 98.9962 21.7854L98.9651 21.8786H86.7227C86.7849 22.4379 86.9402 22.9662 87.1577 23.4012C87.3752 23.8673 87.686 24.2712 88.0588 24.613C88.4317 24.9548 88.8667 25.2034 89.3328 25.3898C89.8299 25.5762 90.3271 25.6694 90.8242 25.6694C91.601 25.6694 92.3778 25.4519 93.0614 25.0791C93.745 24.6751 94.2422 24.178 94.4907 23.5565L94.5218 23.4633L98.2194 24.4887L98.1572 24.613C97.5358 25.8248 96.6036 26.8502 95.2986 27.627C93.9936 28.4038 92.44 28.8077 90.6378 28.8077C89.3328 28.8077 88.152 28.5902 87.1267 28.1552C86.1013 27.7202 85.2002 27.0988 84.4545 26.353C83.7087 25.6073 83.1494 24.7062 82.7455 23.7119C82.3416 22.7176 82.1551 21.6301 82.1551 20.5425C82.1551 19.3929 82.3726 18.3054 82.7455 17.3111C83.1184 16.3167 83.6777 15.4157 84.4234 14.6389C85.138 13.862 86.0391 13.2406 87.0956 12.8056C88.152 12.3395 89.3328 12.122 90.6378 12.122C91.9428 12.122 93.1236 12.3706 94.1489 12.8056ZM87.0024 17.5286C86.7849 17.9636 86.6606 18.4607 86.5984 18.9889H94.615C94.4907 17.9014 94.0557 17.0003 93.3411 16.3167C92.5953 15.6021 91.6632 15.2603 90.5757 15.2603C90.0474 15.2603 89.5503 15.3535 89.0842 15.5399C88.6492 15.7264 88.2142 15.975 87.8724 16.3167C87.5306 16.6585 87.2199 17.0625 87.0024 17.5286ZM110.679 12.1841H110.182C109.747 12.1841 109.312 12.2773 108.846 12.4327C108.38 12.6191 107.945 12.8677 107.479 13.1784C107.044 13.5202 106.609 13.8931 106.236 14.3281C105.832 14.7631 105.521 15.2603 105.21 15.8196V12.4638H101.451V24.644C101.451 26.9123 103.284 28.7456 105.552 28.7456V18.7093C105.987 17.7771 106.702 17.0935 107.665 16.6274C108.659 16.1614 109.747 15.9128 111.021 15.9128V12.1841H110.679Z" fill="black"></path><path fill-rule="evenodd" clip-rule="evenodd" d="M122.646 0C119.06 0 116.153 2.90724 116.153 6.49351V33.4416C116.153 37.0278 119.06 39.9351 122.646 39.9351H215.99C219.577 39.9351 222.484 37.0278 222.484 33.4416V6.49351C222.484 2.90724 219.577 0 215.99 0H122.646ZM181.998 7.38711H186.054V12.527H189.429V15.6543H186.085V21.8469V23.4261V28.7208C185.528 28.7208 185.002 28.6279 184.537 28.504C184.042 28.3802 183.608 28.1325 183.237 27.8228C182.865 27.5132 182.556 27.1107 182.339 26.6153C182.122 26.1199 181.998 25.5316 181.998 24.8194V15.6853H179.893V12.558H181.998V7.38711ZM203.208 13.2086V12.9918H203.239V12.5274H207.326V13.0228V13.2395V13.3324V23.798L207.295 28.7831H205.313H203.208L203.239 26.5847C202.743 27.173 202.124 27.6374 201.443 28.009C200.421 28.5354 199.368 28.7831 198.285 28.7831C197.201 28.7831 196.179 28.5663 195.25 28.1329C194.321 27.6994 193.516 27.1111 192.835 26.368C192.154 25.6248 191.628 24.7269 191.256 23.7361C190.885 22.7143 190.699 21.6306 190.699 20.4849C190.699 19.3393 190.885 18.2556 191.225 17.2648C191.597 16.243 192.092 15.376 192.711 14.6329C193.362 13.8898 194.105 13.3015 194.972 12.868C195.839 12.4345 196.799 12.2177 197.82 12.2177C198.997 12.2177 200.081 12.5274 201.01 13.0847C201.938 13.673 202.682 14.4161 203.208 15.3141V13.2086ZM202.589 23.6432C202.867 23.3336 203.053 22.962 203.208 22.5904H203.27V18.751C203.115 18.2865 202.867 17.884 202.589 17.5125C202.31 17.1409 201.969 16.8313 201.598 16.5526C201.226 16.2739 200.824 16.0572 200.421 15.9024C199.988 15.7476 199.585 15.6547 199.183 15.6547C198.563 15.6547 198.006 15.7785 197.48 16.0572C196.953 16.3359 196.52 16.6765 196.148 17.1409C195.777 17.6054 195.498 18.1317 195.281 18.72C195.065 19.3083 194.972 19.9276 194.972 20.5469C194.972 21.2281 195.096 21.8473 195.312 22.4047C195.529 22.962 195.839 23.4574 196.21 23.8909C196.613 24.2934 197.077 24.634 197.604 24.8817C198.13 25.1294 198.718 25.2533 199.368 25.2533C199.74 25.2533 200.143 25.1913 200.545 25.0675C200.948 24.9436 201.319 24.7579 201.66 24.5102C202 24.2625 202.31 23.9528 202.589 23.6432ZM215.098 22.9926V7.38711H215.036C213.767 7.38711 212.776 7.72771 212.064 8.4089C211.352 9.09009 211.011 10.05 211.011 11.3194V28.7208H215.098V22.9926ZM162.429 13.0841C163.389 13.6415 164.163 14.3846 164.783 15.3444H164.814V12.5268H168.405V27.2962C168.405 28.5038 168.189 29.5566 167.724 30.5164C167.291 31.4763 166.671 32.2813 165.866 32.9316C165.061 33.5818 164.101 34.1082 163.018 34.4488C161.996 34.7894 160.881 34.9442 159.674 34.9751H159.581C158.683 34.9442 157.878 34.8203 157.135 34.6345C156.051 34.3868 155.06 34.0153 154.255 33.4889C154.069 33.365 153.884 33.2412 153.729 33.1173L154.255 32.1575L154.936 30.9189L155.184 30.4545L155.277 30.2687C156.361 31.1667 158.002 31.8169 159.612 31.8788C160.169 31.8788 160.726 31.7859 161.253 31.6311C161.841 31.4763 162.336 31.1976 162.801 30.8261C163.234 30.4545 163.606 29.9901 163.854 29.4018C164.101 28.8134 164.225 28.1323 164.225 27.3582V25.9339C163.668 26.8628 162.925 27.5749 161.965 28.0703C160.974 28.5657 159.952 28.8135 158.838 28.8135C157.723 28.8135 156.763 28.5967 155.865 28.1632C154.998 27.7297 154.224 27.1414 153.574 26.3983C152.924 25.6552 152.428 24.7882 152.088 23.7974C151.747 22.8066 151.561 21.7538 151.561 20.6392C151.561 19.4625 151.747 18.3788 152.119 17.3571C152.49 16.3353 153.017 15.4683 153.667 14.6942C154.348 13.9201 155.122 13.3318 156.051 12.8983C156.98 12.4649 158.002 12.2481 159.116 12.2481C160.386 12.2481 161.47 12.5268 162.429 13.0841ZM163.637 23.7974C163.916 23.4568 164.101 23.1162 164.256 22.7447H164.225V18.9052C163.854 17.9454 163.296 17.2022 162.491 16.6139C161.717 16.0256 160.881 15.747 160.014 15.747C159.364 15.747 158.807 15.8708 158.28 16.1495C157.754 16.4282 157.32 16.7997 156.949 17.2642C156.577 17.7286 156.299 18.255 156.113 18.8433C155.927 19.4625 155.834 20.0508 155.834 20.7011C155.834 21.3823 155.958 21.9706 156.175 22.5589C156.392 23.1472 156.701 23.6426 157.104 24.0761C157.506 24.5096 157.971 24.8502 158.497 25.0979C159.054 25.3456 159.612 25.4694 160.262 25.4694C160.726 25.4694 161.16 25.4075 161.562 25.2527C161.965 25.0979 162.367 24.9121 162.708 24.6644C163.049 24.4167 163.358 24.138 163.637 23.7974ZM136.049 11.474V12.9912V15.3135C135.523 14.4156 134.779 13.6724 133.851 13.0841C132.922 12.5268 131.838 12.2172 130.661 12.2172C129.64 12.2172 128.68 12.4339 127.813 12.8674C126.946 13.3009 126.203 13.8892 125.552 14.6323C124.933 15.3754 124.438 16.2424 124.066 17.2642C123.726 18.255 123.54 19.3387 123.54 20.4844C123.54 21.63 123.726 22.7137 124.097 23.7355C124.469 24.7263 124.995 25.6243 125.676 26.3674C126.357 27.1105 127.162 27.6988 128.091 28.1323C129.02 28.5658 130.042 28.7825 131.126 28.7825C132.209 28.7825 133.262 28.5348 134.284 28.0084C134.965 27.6369 135.584 27.1724 136.08 26.5841L136.049 28.7825H138.154H140.136L140.167 23.7974V13.3318V13.0222V7.41786C137.876 7.3869 136.049 9.21373 136.049 11.474ZM136.049 22.5899C135.894 22.9614 135.708 23.333 135.43 23.6426C135.151 23.9522 134.841 24.2619 134.501 24.5096C134.16 24.7573 133.789 24.9431 133.386 25.0669C132.984 25.1908 132.581 25.2527 132.209 25.2527C131.559 25.2527 130.971 25.1288 130.445 24.8811C129.918 24.6334 129.454 24.2928 129.051 23.8903C128.68 23.4568 128.37 22.9614 128.153 22.4041C127.937 21.8467 127.813 21.2275 127.813 20.5463C127.813 19.927 127.906 19.3078 128.122 18.7194C128.339 18.1311 128.618 17.6048 128.989 17.1403C129.361 16.6759 129.794 16.3353 130.321 16.0566C130.847 15.7779 131.404 15.6541 132.024 15.6541C132.426 15.6541 132.829 15.747 133.262 15.9018C133.665 16.0566 134.067 16.2734 134.439 16.552C134.81 16.8307 135.151 17.1403 135.43 17.5119C135.708 17.8834 135.956 18.286 136.111 18.7504V22.5899H136.049ZM143.821 28.7513V16.5517C143.821 14.2914 145.647 12.4646 147.908 12.4956V28.7513H143.821ZM145.864 7.38711C144.718 7.38711 143.821 8.28505 143.821 9.39972C143.821 10.5144 144.718 11.4123 145.833 11.4123H145.864C146.979 11.4123 147.877 10.5144 147.877 9.39972C147.877 8.28505 146.979 7.38711 145.864 7.38711ZM172.09 28.7513V16.5517C172.09 14.2914 173.917 12.4646 176.146 12.4956V28.7513H172.09ZM174.134 7.38711C172.988 7.38711 172.09 8.28505 172.09 9.39972C172.09 10.5144 172.988 11.4123 174.103 11.4123H174.134C175.249 11.4123 176.146 10.5144 176.146 9.39972C176.146 8.28505 175.249 7.38711 174.134 7.38711Z" fill="black"></path></svg>